<svg xmlns="http://www.w3.org/2000/svg" width="100%" height="100%" viewBox="0 0 1200 800">
  <defs>
    <pattern id="smallGrid" width="20" height="20" patternUnits="userSpaceOnUse">
      <path d="M 20 0 L 0 0 0 20" fill="none" stroke="#9d65c9" stroke-width="0.5" opacity="0.2"/>
    </pattern>
    <pattern id="grid" width="100" height="100" patternUnits="userSpaceOnUse">
      <rect width="100" height="100" fill="url(#smallGrid)"/>
      <path d="M 100 0 L 0 0 0 100" fill="none" stroke="#6a4c93" stroke-width="1" opacity="0.3"/>
    </pattern>
    <linearGradient id="purpleGrad" x1="0%" y1="0%" x2="100%" y2="100%">
      <stop offset="0%" style="stop-color:#6a4c93;stop-opacity:0.1" />
      <stop offset="50%" style="stop-color:#9d65c9;stop-opacity:0.05" />
      <stop offset="100%" style="stop-color:#5e35b1;stop-opacity:0.1" />
    </linearGradient>
  </defs>
  
  <!-- Background -->
  <rect width="100%" height="100%" fill="#f7fafc" />
  <rect width="100%" height="100%" fill="url(#grid)" />
  
  <!-- Decorative Elements -->
  <circle cx="100" cy="100" r="300" fill="url(#purpleGrad)" />
  <circle cx="1100" cy="700" r="350" fill="url(#purpleGrad)" />
  
  <!-- Geometric Shapes -->
  <polygon points="600,100 700,300 500,300" fill="#6a4c93" opacity="0.1" />
  <polygon points="1000,400 1100,600 900,600" fill="#9d65c9" opacity="0.1" />
  <polygon points="200,500 300,700 100,700" fill="#5e35b1" opacity="0.1" />
  
  <!-- Connecting Lines -->
  <line x1="200" y1="200" x2="400" y2="400" stroke="#8a6db1" stroke-width="2" opacity="0.2" />
  <line x1="800" y1="200" x2="600" y2="400" stroke="#8a6db1" stroke-width="2" opacity="0.2" />
  <line x1="200" y1="600" x2="400" y2="400" stroke="#8a6db1" stroke-width="2" opacity="0.2" />
  <line x1="800" y1="600" x2="600" y2="400" stroke="#8a6db1" stroke-width="2" opacity="0.2" />
</svg>
